<svg width="25" height="24" viewBox="0 0 25 24" fill="none" xmlns="http://www.w3.org/2000/svg">
<path d="M15.8333 21V13C15.8333 12.7348 15.728 12.4804 15.5405 12.2929C15.3529 12.1054 15.0986 12 14.8333 12H10.8333C10.5681 12 10.3138 12.1054 10.1262 12.2929C9.9387 12.4804 9.83334 12.7348 9.83334 13V21" stroke="#8C8C8C" stroke-width="2" stroke-linecap="round" stroke-linejoin="round"/>
<path d="M3.83334 10C3.83327 9.7091 3.89668 9.42165 4.01913 9.15775C4.14159 8.89384 4.32014 8.65983 4.54234 8.47203L11.5423 2.47303C11.9033 2.16794 12.3607 2.00055 12.8333 2.00055C13.306 2.00055 13.7634 2.16794 14.1243 2.47303L21.1243 8.47203C21.3465 8.65983 21.5251 8.89384 21.6476 9.15775C21.77 9.42165 21.8334 9.7091 21.8333 10V19C21.8333 19.5305 21.6226 20.0392 21.2476 20.4142C20.8725 20.7893 20.3638 21 19.8333 21H5.83334C5.30291 21 4.7942 20.7893 4.41913 20.4142C4.04406 20.0392 3.83334 19.5305 3.83334 19V10Z" stroke="#8C8C8C" stroke-width="2" stroke-linecap="round" stroke-linejoin="round"/>
</svg>
