<svg width="25" height="24" viewBox="0 0 25 24" fill="none" xmlns="http://www.w3.org/2000/svg">
<path d="M12.3866 2H11.9466C11.4162 2 10.9075 2.21071 10.5324 2.58579C10.1573 2.96086 9.94663 3.46957 9.94663 4V4.18C9.94627 4.53073 9.85369 4.87519 9.67817 5.17884C9.50265 5.48248 9.25037 5.73464 8.94663 5.91L8.51663 6.16C8.21259 6.33554 7.8677 6.42795 7.51663 6.42795C7.16555 6.42795 6.82067 6.33554 6.51663 6.16L6.36663 6.08C5.90769 5.81526 5.36246 5.74344 4.85063 5.88031C4.33879 6.01717 3.90218 6.35154 3.63663 6.81L3.41663 7.19C3.15189 7.64893 3.08007 8.19416 3.21694 8.706C3.3538 9.21783 3.68816 9.65445 4.14663 9.92L4.29663 10.02C4.5989 10.1945 4.85025 10.4451 5.02568 10.7468C5.20111 11.0486 5.29452 11.391 5.29663 11.74V12.25C5.29803 12.6024 5.20628 12.949 5.03067 13.2545C4.85507 13.5601 4.60184 13.8138 4.29663 13.99L4.14663 14.08C3.68816 14.3456 3.3538 14.7822 3.21694 15.294C3.08007 15.8058 3.15189 16.3511 3.41663 16.81L3.63663 17.19C3.90218 17.6485 4.33879 17.9828 4.85063 18.1197C5.36246 18.2566 5.90769 18.1847 6.36663 17.92L6.51663 17.84C6.82067 17.6645 7.16555 17.5721 7.51663 17.5721C7.8677 17.5721 8.21259 17.6645 8.51663 17.84L8.94663 18.09C9.25037 18.2654 9.50265 18.5175 9.67817 18.8212C9.85369 19.1248 9.94627 19.4693 9.94663 19.82V20C9.94663 20.5304 10.1573 21.0391 10.5324 21.4142C10.9075 21.7893 11.4162 22 11.9466 22H12.3866C12.9171 22 13.4258 21.7893 13.8008 21.4142C14.1759 21.0391 14.3866 20.5304 14.3866 20V19.82C14.387 19.4693 14.4796 19.1248 14.6551 18.8212C14.8306 18.5175 15.0829 18.2654 15.3866 18.09L15.8166 17.84C16.1207 17.6645 16.4656 17.5721 16.8166 17.5721C17.1677 17.5721 17.5126 17.6645 17.8166 17.84L17.9666 17.92C18.4256 18.1847 18.9708 18.2566 19.4826 18.1197C19.9945 17.9828 20.4311 17.6485 20.6966 17.19L20.9166 16.8C21.1814 16.3411 21.2532 15.7958 21.1163 15.284C20.9795 14.7722 20.6451 14.3356 20.1866 14.07L20.0366 13.99C19.7314 13.8138 19.4782 13.5601 19.3026 13.2545C19.127 12.949 19.0352 12.6024 19.0366 12.25V11.75C19.0352 11.3976 19.127 11.051 19.3026 10.7455C19.4782 10.4399 19.7314 10.1862 20.0366 10.01L20.1866 9.92C20.6451 9.65445 20.9795 9.21783 21.1163 8.706C21.2532 8.19416 21.1814 7.64893 20.9166 7.19L20.6966 6.81C20.4311 6.35154 19.9945 6.01717 19.4826 5.88031C18.9708 5.74344 18.4256 5.81526 17.9666 6.08L17.8166 6.16C17.5126 6.33554 17.1677 6.42795 16.8166 6.42795C16.4656 6.42795 16.1207 6.33554 15.8166 6.16L15.3866 5.91C15.0829 5.73464 14.8306 5.48248 14.6551 5.17884C14.4796 4.87519 14.387 4.53073 14.3866 4.18V4C14.3866 3.46957 14.1759 2.96086 13.8008 2.58579C13.4258 2.21071 12.9171 2 12.3866 2Z" stroke="#8C8C8C" stroke-width="2" stroke-linecap="round" stroke-linejoin="round"/>
<path d="M12.1666 15C13.8235 15 15.1666 13.6569 15.1666 12C15.1666 10.3431 13.8235 9 12.1666 9C10.5098 9 9.16663 10.3431 9.16663 12C9.16663 13.6569 10.5098 15 12.1666 15Z" stroke="#8C8C8C" stroke-width="2" stroke-linecap="round" stroke-linejoin="round"/>
</svg>
